# xmcd CD database file
#
# Track frame offsets:
#	150
#	37212
#	52327
#	69687
#	96980
#	124242
#	139075
#	152355
#	172635
#
# Disc length: 2529 seconds
#
# Revision: 3
# Processed by: cddbd v1.5.2PL0 Copyright (c) Steve Scherf et al.
# Submitted via: CDex 1.70beta3
#
DISCID=7e09df09
DTITLE=Graham Central Station - Ain't No 'Bout-A-Doubt It
DYEAR=1975
DGENRE=Rhythmic Soul
TTITLE0=The Jam
TTITLE1=Your Love
TTITLE2=It's Alright
TTITLE3=I Can't Stand The Rain
TTITLE4=It Ain't Nothing But A Warner Bros. Party
TTITLE5=Ole Smokey
TTITLE6=Easy Rider
TTITLE7=Water
TTITLE8=Luckiest People
EXTD=Label: Warner Bros\n\nAll songs written by Larry Graham, except track 4, written by Bryant-Miller-Peebles.\n\n YEAR: 1975
EXTT0=
EXTT1=
EXTT2=
EXTT3=
EXTT4=
EXTT5=
EXTT6=
EXTT7=
EXTT8=
PLAYORDER=
